<?xml version="1.0" standalone="no"?>
<!DOCTYPE svg PUBLIC "-//W3C//DTD SVG 20010904//EN"
 "http://www.w3.org/TR/2001/REC-SVG-20010904/DTD/svg10.dtd">
<svg version="1.0" xmlns="http://www.w3.org/2000/svg"
 width="256.000000pt" height="256.000000pt" viewBox="0 0 256.000000 256.000000"
 preserveAspectRatio="xMidYMid meet">
<metadata>
Created by potrace 1.14, written by Peter Selinger 2001-2017
</metadata>
<g transform="translate(0.000000,256.000000) scale(0.100000,-0.100000)"
fill="#000000" stroke="none">
<path d="M1801 2512 c-5 -9 -17 -47 -26 -82 -9 -36 -19 -74 -22 -85 -3 -13 -2
-17 5 -10 16 16 69 195 58 195 -3 0 -10 -8 -15 -18z"/>
<path d="M931 2450 c0 -19 6 -48 14 -65 l15 -30 -5 47 c-5 62 -24 99 -24 48z"/>
<path d="M580 2381 c26 -67 59 -130 60 -114 0 22 -51 141 -66 154 -11 9 -10
-2 6 -40z"/>
<path d="M1219 2320 c-24 -16 -60 -41 -79 -54 -44 -31 -50 -32 -50 -2 0 14 -5
28 -11 31 -7 5 -9 -7 -6 -34 4 -38 0 -45 -41 -86 -25 -25 -57 -48 -71 -51
-100 -22 -378 -147 -411 -184 -3 -3 -28 -23 -57 -44 -91 -68 -91 -82 -14 -285
l51 -133 -34 -62 c-33 -58 -70 -161 -80 -218 -5 -27 16 -63 59 -101 20 -18 20
-19 -19 -53 -51 -46 -163 -99 -254 -121 -54 -12 -72 -21 -72 -34 0 -14 39 -52
97 -94 12 -9 10 -13 -11 -25 -14 -7 -26 -19 -26 -27 0 -7 -9 -13 -20 -13 -11
0 -20 5 -20 10 0 12 -117 14 -124 2 -2 -4 19 -7 47 -7 67 1 70 -2 46 -26 -22
-22 -19 -50 8 -81 9 -10 13 -24 9 -33 -6 -17 9 -55 28 -67 17 -11 61 -9 73 3
8 8 16 7 30 -2 28 -17 70 -4 87 29 10 20 27 31 61 40 60 16 54 25 -8 13 -26
-4 -47 -5 -47 -1 0 5 5 10 10 12 6 2 13 15 15 30 6 32 -23 68 -54 68 -11 0
-21 9 -24 22 -7 26 -8 25 18 30 14 2 20 -2 19 -14 -1 -10 2 -16 6 -13 4 2 15
-4 25 -15 24 -27 82 -41 135 -34 l42 6 -28 -52 c-38 -69 -101 -123 -182 -155
-94 -37 -115 -54 -106 -89 4 -17 17 -32 33 -38 37 -14 142 -13 170 2 l24 12
-22 -35 c-29 -48 -31 -108 -5 -144 24 -32 117 -83 151 -83 13 0 23 -4 23 -8 0
-18 69 -40 128 -40 51 0 70 5 107 29 27 17 45 36 45 47 0 10 9 27 20 37 20 18
20 17 20 -8 0 -22 7 -28 48 -41 117 -37 180 -48 297 -49 137 0 192 5 290 30
55 14 72 23 82 43 11 22 13 23 13 4 0 -25 43 -66 88 -84 48 -19 143 -8 184 21
18 13 40 23 48 22 24 -4 131 59 154 90 24 33 25 91 1 137 l-17 33 29 -8 c38
-11 132 -9 165 4 15 5 35 22 44 37 18 26 18 27 -11 49 -15 13 -47 29 -70 35
-57 16 -149 70 -139 80 5 5 20 11 34 13 63 11 110 41 110 71 0 3 -19 15 -42
26 -49 23 -116 75 -83 64 11 -4 33 -16 49 -27 l29 -21 51 27 c58 31 129 94
123 111 -2 6 -17 14 -33 17 l-29 6 27 7 c15 4 29 14 32 22 3 7 11 11 19 8 42
-16 91 43 68 84 -6 10 -6 23 0 34 7 12 6 26 -2 41 -16 29 -29 37 -57 32 -14
-2 -31 4 -43 16 -10 10 -27 19 -37 19 -25 0 -62 -36 -62 -60 0 -11 -7 -20 -15
-20 -8 0 -22 -11 -30 -24 -13 -19 -13 -28 -4 -50 7 -14 20 -28 31 -31 10 -4
18 -14 18 -22 0 -9 7 -25 16 -35 16 -17 15 -17 -29 -2 -47 16 -51 20 -64 89
-9 50 -7 40 -27 108 l-18 59 46 44 c41 38 46 48 41 75 -8 43 -20 63 -49 83
-23 14 -24 19 -14 41 8 18 8 31 0 49 -9 19 -8 25 4 30 19 7 18 46 -1 46 -8 0
-15 7 -15 15 0 19 17 19 51 2 14 -8 36 -12 48 -10 13 2 30 -2 37 -8 11 -9 19
-8 34 6 30 27 8 48 -47 43 -24 -2 -43 -1 -43 2 0 9 91 40 123 42 35 3 55 24
39 40 -8 8 -24 9 -56 1 -41 -9 -46 -8 -63 15 -16 22 -21 24 -41 13 -13 -7 -25
-25 -29 -42 -3 -16 -11 -30 -17 -30 -33 -4 -87 -1 -92 4 -5 5 20 55 42 85 1 2
11 -2 22 -9 17 -10 25 -10 47 5 15 10 32 16 38 13 7 -2 23 0 36 4 21 8 22 14
17 52 -7 54 -7 57 -2 89 2 14 -2 38 -10 53 -20 39 -19 41 35 66 30 13 52 30
55 42 11 43 -20 50 -55 12 -34 -35 -42 -31 -24 12 26 61 0 120 -38 90 -17 -13
-25 -46 -15 -62 4 -6 0 -36 -9 -67 l-16 -56 -35 24 -35 24 -19 -27 c-10 -16
-18 -33 -18 -39 0 -6 -9 -19 -19 -28 -18 -16 -21 -16 -52 11 -19 16 -51 41
-71 56 -49 36 -259 130 -363 162 -64 20 -90 34 -115 61 -29 32 -232 174 -249
174 -4 0 -27 -13 -52 -30z m931 -560 c0 -5 -5 -10 -11 -10 -5 0 -7 5 -4 10 3
6 8 10 11 10 2 0 4 -4 4 -10z m48 -488 c12 -18 12 -22 1 -22 -8 0 -19 12 -26
26 -14 31 3 29 25 -4z m-101 -253 c4 -38 3 -40 -16 -29 -41 21 -46 60 -11 72
21 7 23 3 27 -43z m-291 -466 c-2 -44 -6 -57 -17 -55 -21 5 -29 24 -18 43 5
10 13 29 19 43 15 39 18 32 16 -31z m-1017 -20 c11 -23 10 -29 -5 -40 -28 -20
-34 -7 -25 60 2 16 18 5 30 -20z"/>
<path d="M454 2175 c-12 -8 -26 -10 -40 -5 -15 6 -29 4 -44 -7 -19 -13 -21
-22 -16 -54 3 -21 2 -40 -4 -44 -32 -20 14 -90 55 -83 14 3 26 -2 34 -14 14
-22 56 -24 73 -2 7 9 25 28 41 42 33 33 37 78 6 87 -14 5 -19 13 -16 26 11 42
-53 81 -89 54z"/>
<path d="M2017 2097 c-24 -37 -22 -56 4 -30 12 11 19 29 17 39 -3 15 -6 14
-21 -9z"/>
<path d="M310 1740 c28 -36 70 -69 70 -56 0 8 -87 96 -95 96 -4 0 8 -18 25
-40z"/>
<path d="M181 1602 c14 -23 101 -84 108 -76 7 7 -53 60 -92 80 -26 14 -27 14
-16 -4z"/>
<path d="M390 1578 c0 -7 32 -41 55 -58 19 -15 19 -14 4 9 -14 23 -59 59 -59
49z"/>
<path d="M2346 1357 c-22 -7 -41 -18 -43 -24 -3 -8 16 -5 56 8 34 12 61 23 61
25 0 7 -34 3 -74 -9z"/>
<path d="M170 1205 c0 -4 67 -35 76 -35 14 0 -1 17 -23 28 -27 12 -53 16 -53
7z"/>
<path d="M2265 545 c27 -13 116 -31 120 -24 3 4 -3 10 -12 13 -25 7 -120 17
-108 11z"/>
<path d="M283 281 c-50 -20 -63 -31 -37 -31 19 0 84 35 84 45 0 3 -1 5 -2 4
-2 -1 -22 -9 -45 -18z"/>
<path d="M2170 281 c0 -13 97 -64 112 -59 6 2 -17 19 -51 37 -33 17 -61 27
-61 22z"/>
</g>
</svg>
